<svg width="629" height="541" xmlns="http://www.w3.org/2000/svg" xmlns:xlink="http://www.w3.org/1999/xlink" xml:space="preserve" overflow="hidden"><g transform="translate(-1877 -930)"><path d="M2189 948.114C2191.28 944.169 2196.32 942.817 2200.27 945.095L2200.27 945.095C2204.21 947.372 2205.57 952.417 2203.29 956.362L1924.5 1439.23C1922.23 1443.17 1917.18 1444.53 1913.24 1442.25L1913.24 1442.25C1909.29 1439.97 1907.94 1434.93 1910.22 1430.98Z" stroke="#EBA431" stroke-width="27.5" stroke-miterlimit="8" fill="none" fill-rule="evenodd"/><path d="M2193.36 956.363C2191.08 952.418 2192.44 947.373 2196.38 945.096L2196.38 945.096C2200.33 942.818 2205.37 944.17 2207.65 948.115L2486.43 1430.98C2488.71 1434.93 2487.36 1439.97 2483.41 1442.25L2483.41 1442.25C2479.47 1444.53 2474.42 1443.17 2472.15 1439.23Z" stroke="#EBA431" stroke-width="27.5" stroke-miterlimit="8" fill="none" fill-rule="evenodd"/><path d="M2474 1430C2478.42 1430 2482 1433.58 2482 1438L2482 1438C2482 1442.42 2478.42 1446 2474 1446L1916 1446C1911.58 1446 1908 1442.42 1908 1438L1908 1438C1908 1433.58 1911.58 1430 1916 1430Z" stroke="#EBA431" stroke-width="27.5" stroke-miterlimit="8" fill="none" fill-rule="evenodd"/><path d="M2185.5 1114C2185.5 1105.99 2191.99 1099.5 2200 1099.5L2200 1099.5C2208.01 1099.5 2214.5 1105.99 2214.5 1114L2214.5 1295C2214.5 1303.01 2208.01 1309.5 2200 1309.5L2200 1309.5C2191.99 1309.5 2185.5 1303.01 2185.5 1295Z" stroke="#EBA431" stroke-width="6.875" stroke-miterlimit="8" fill="#EBA431" fill-rule="evenodd"/><path d="M2180.5 1356.5C2180.5 1345.45 2189.45 1336.5 2200.5 1336.5 2211.55 1336.5 2220.5 1345.45 2220.5 1356.5 2220.5 1367.55 2211.55 1376.5 2200.5 1376.5 2189.45 1376.5 2180.5 1367.55 2180.5 1356.5Z" stroke="#EBA431" stroke-width="6.875" stroke-miterlimit="8" fill="#EBA431" fill-rule="evenodd"/></g></svg>